#!OML:ASF X:\für Bonn\!DataBase\2005_08_12_Daniel\c3d\Daniel.ASF
:FULLY-SPECIFIED
:DEGREES
309
root 1.01087 16.3608 -14.2543 351.61 21.8136 -2.38305
lowerback 40.8213 -1.56379 4.07825
upperback 8.63162 -0.229873 -1.95932
thorax -10.033 -0.0120951 -4.15403
lowerneck 0.36806 -4.89594 -5.06921
upperneck 8.68086 -6.92523 7.05607
head 3.24943 -3.3744 3.04077
rclavicle 2.78299e-014 -9.14409e-015
rhumerus -11.155 20.1928 -93.9189
rradius 43.6839
rwrist -30.2578
rhand -8.6233 10.8026
rfingers 7.12502
rthumb 17.309 -18.4466
lclavicle 2.78299e-014 -9.14409e-015
lhumerus -21.5847 24.7194 82.1791
lradius 30.7487
lwrist -18.3729
lhand -10.5748 -7.29977
lfingers 7.12502
lthumb 15.4301 22.1043
rfemur -17.8294 -19.1811 13.1344
rtibia 60.6115
rfoot -19.09 -344.244
rtoes -3.77007
lfemur -25.457 -0.41201 -18.3881
ltibia 62.9269
lfoot -28.584 -15.4568
ltoes -3.54657
310
root 1.0417 16.4356 -14.2133 351.678 21.7381 -2.43651
lowerback 40.0774 -1.49004 3.89737
upperback 8.44578 -0.264069 -2.02114
thorax -10.012 -0.0360701 -4.11501
lowerneck 0.607735 -4.85584 -4.93406
upperneck 8.67433 -6.88004 7.03205
head 3.19103 -3.35301 3.01388
rclavicle -8.54774e-015 2.22639e-014
rhumerus -12.0232 19.9786 -94.0468
rradius 44.0751
rwrist -30.6852
rhand -8.6356 11.1988
rfingers 7.12502
rthumb 17.2972 -18.0515
lclavicle -8.54774e-015 2.22639e-014
lhumerus -21.8952 24.7717 81.8039
lradius 30.6578
lwrist -18.4427
lhand -10.4976 -7.47753
lfingers 7.12502
lthumb 15.5044 21.9208
rfemur -17.0217 -18.5846 13.3565
rtibia 59.3169
rfoot -19.1279 -345.028
rtoes -4.38131
lfemur -24.6318 -0.668875 -18.4194
ltibia 61.757
lfoot -28.332 -15.1497
ltoes -3.50291
311
root 1.07316 16.5097 -14.1702 351.694 21.6385 -2.49176
lowerback 39.3523 -1.41516 3.69617
upperback 8.29456 -0.299049 -2.07809
thorax -9.95159 -0.0578376 -4.05899
lowerneck 0.752749 -4.79909 -4.84867
upperneck 8.70847 -6.81411 7.05268
head 3.16788 -3.31965 3.01059
rclavicle 2.28602e-014 -4.45278e-014
rhumerus -12.745 19.872 -94.1222
rradius 44.3911
rwrist -31.2728
rhand -8.63548 11.5928
rfingers 7.12502
rthumb 17.2973 -17.6574
lclavicle 2.28602e-014 -4.45278e-014
lhumerus -22.1118 24.8979 81.4639
lradius 30.5326
lwrist -18.6105
lhand -10.4646 -7.60748
lfingers 7.12502
lthumb 15.5362 21.7884
rfemur -16.1743 -17.8458 13.5991
rtibia 58.0335
rfoot -19.1545 -345.928
rtoes -4.94859
lfemur -23.7372 -0.917979 -18.4489
ltibia 60.5844
lfoot -28.122 -14.801
ltoes -3.49612
312
root 1.10493 16.5803 -14.1266 351.653 21.5557 -2.55013
lowerback 38.6902 -1.34902 3.52142
upperback 8.14028 -0.328761 -2.14264
thorax -9.90944 -0.0771873 -4.02695
lowerneck 0.922498 -4.76709 -4.69331
upperneck 8.75726 -6.7785 7.01299
head 3.14092 -3.30081 2.9727
rclavicle -2.22639e-014 5.40694e-014
rhumerus -13.4492 19.6629 -94.2108
rradius 44.6625
rwrist -31.7842
rhand -8.6274 11.9776
rfingers 7.12502
rthumb 17.3051 -17.2719
lclavicle -2.22639e-014 5.40694e-014
lhumerus -22.2473 25.0404 81.1299
lradius 30.3136
lwrist -18.8937
lhand -10.4278 -7.72673
lfingers 7.12502
lthumb 15.5716 21.6664
rfemur -15.3002 -17.0878 13.8351
rtibia 56.8115
rfoot -19.2012 -346.856
rtoes -5.54339
lfemur -22.7783 -1.17025 -18.4766
ltibia 59.4242
lfoot -27.9207 -14.47
ltoes -3.61236
